<svg xmlns="http://www.w3.org/2000/svg" viewBox="0 0 64 64" width="480px" height="480px"><radialGradient id="Ep4vyZ7MRtjOZLIHZXb4Na" cx="32.66" cy="36.745" r="22.359" gradientTransform="matrix(1 0 0 -1 0 66)" gradientUnits="userSpaceOnUse"><stop offset="0" stop-color="#afeeff"/><stop offset=".193" stop-color="#bbf1ff"/><stop offset=".703" stop-color="#d7f8ff"/><stop offset="1" stop-color="#e1faff"/></radialGradient><path fill="url(#Ep4vyZ7MRtjOZLIHZXb4Na)" d="M52.03,37.34c0.16,0.98,1.08,1.66,2.08,1.66h4.39c2.63,0,4.75,2.28,4.48,4.96	C62.74,46.3,60.64,48,58.29,48H56c-1.22,0-2.18,1.08-1.97,2.34c0.16,0.98,1.08,1.66,2.08,1.66h1.39c1.24,0,2.37,0.5,3.18,1.32	C61.5,54.13,62,55.26,62,56.5c0,2.49-2.01,4.5-4.5,4.5h-52c-1.52,0-2.9-0.62-3.89-1.61C0.62,58.4,0,57.02,0,55.5	C0,52.46,1.96,50,5,50l0,0c0.83,0,1.58-0.34,2.12-0.88C7.66,48.58,8,47.83,8,47c0-1.66-1.34-3-3-3H4.5c-2.63,0-4.75-2.28-4.48-4.96	C0.26,36.7,2.36,35,4.71,35H8c1.71,0,3.09-1.43,3-3.16C10.91,30.22,9.45,29,7.83,29H4.5c-2.63,0-4.75-2.28-4.48-4.96	C0.26,21.7,2.37,20,4.71,20h6.79c0.69,0,1.32-0.28,1.77-0.73C13.72,18.82,14,18.19,14,17.5c0-1.38-1.12-2.5-2.5-2.5h-4	c-1.52,0-2.9-0.62-3.89-1.61S2,11.02,2,9.5C2,6.46,4.46,4,7.5,4h49c3.21,0,5.8,2.79,5.47,6.06C61.68,12.92,60.11,15,57.24,15H55.5	c-2.49,0-4.5,2.01-4.5,4.5c0,1.24,0.5,2.37,1.32,3.18C53.13,23.5,54.26,24,55.5,24h3c3.21,0,5.8,2.79,5.47,6.06	C63.68,32.92,61.11,35,58.24,35H54C52.78,35,51.82,36.08,52.03,37.34z"/><linearGradient id="Ep4vyZ7MRtjOZLIHZXb4Nb" x1="53.386" x2="53.386" y1="11" y2="22.28" gradientTransform="matrix(1 0 0 -1 0 66)" gradientUnits="userSpaceOnUse"><stop offset="0" stop-color="#feaa53"/><stop offset=".612" stop-color="#ffcd49"/><stop offset="1" stop-color="#ffde44"/></linearGradient><path fill="url(#Ep4vyZ7MRtjOZLIHZXb4Nb)" d="M58.497,46.48c-0.033-0.186-0.069-0.358-0.132-0.551c-0.136-0.391-0.362-0.831-0.734-1.184	c-0.356-0.367-0.83-0.588-1.057-0.673c-0.28-0.108-0.543-0.176-0.792-0.226c-0.495-0.096-0.932-0.097-1.34-0.085	c-0.814,0.059-1.523,0.195-2.197,0.41c-1.344,0.421-2.522,1.021-3.617,1.9c-0.239,0.194-0.395,0.495-0.391,0.827	c0.007,0.576,0.48,1.038,1.057,1.031l0.077-0.001c1.241-0.015,2.463-0.154,3.571-0.229c0.554-0.023,1.088-0.067,1.526-0.018	c0.023,0.001,0.042,0.005,0.065,0.006c-0.065,0.388-0.192,0.838-0.322,1.313c-0.322,1.077-0.741,2.241-1.044,3.445l-0.017,0.069	c-0.077,0.313-0.007,0.656,0.217,0.92c0.371,0.438,1.027,0.492,1.465,0.12c1.056-0.895,1.882-1.91,2.594-3.112	c0.363-0.602,0.663-1.249,0.901-2.051c0.118-0.406,0.214-0.846,0.207-1.437C58.529,46.801,58.515,46.637,58.497,46.48z M54.582,47.1	c0.003,0.007,0.001,0.04,0.003,0.056C54.575,47.104,54.576,47.074,54.582,47.1z M55.088,47.782c0.003,0.001,0.013,0.004,0.015,0.005	C55.122,47.799,55.11,47.794,55.088,47.782z"/><linearGradient id="Ep4vyZ7MRtjOZLIHZXb4Nc" x1="32" x2="32" y1="60.617" y2="17.303" gradientTransform="matrix(1 0 0 -1 0 66)" gradientUnits="userSpaceOnUse"><stop offset=".122" stop-color="#5e6d7b"/><stop offset=".191" stop-color="#5d6b79"/><stop offset="1" stop-color="#515c69"/></linearGradient><path fill="url(#Ep4vyZ7MRtjOZLIHZXb4Nc)" d="M33.058,22.011h4.114c0-3.921-0.363-6.557-4.597-6.557c-5.142,0-5.901,4.258-9.619,4.258	c-2.662,0-4.84-1.893-4.84-4.935c0-6.468,8.799-8.246,14.579-8.246C42.193,6.531,48,10.587,48,21.875v16.967	c0,3.246-2.238,6.017-5.202,6.017c-2.662,0-4.84-2.163-5.203-5.002c-2.602,3.987-5.989,5.34-10.345,5.34	C21.141,45.196,16,41.208,16,33.976C16,23.295,25.557,22.011,33.058,22.011z M30.942,37.152c4.114,0,6.291-3.516,6.291-7.842v-0.608	h-3.568c-2.783,0-6.655,0.541-6.655,4.529C27.009,35.8,28.764,37.152,30.942,37.152z"/><linearGradient id="Ep4vyZ7MRtjOZLIHZXb4Nd" x1="29.459" x2="29.459" y1="8" y2="22" gradientTransform="matrix(1 0 0 -1 0 66)" gradientUnits="userSpaceOnUse"><stop offset="0" stop-color="#feaa53"/><stop offset=".612" stop-color="#ffcd49"/><stop offset="1" stop-color="#ffde44"/></linearGradient><path fill="url(#Ep4vyZ7MRtjOZLIHZXb4Nd)" d="M8.664,46.253c3.239,1.658,6.671,3.049,10.092,3.997c3.43,0.968,6.901,1.564,10.387,1.709	c1.757,0.079,3.453,0.021,5.204-0.095c1.747-0.159,3.516-0.371,5.3-0.653c3.564-0.564,7.204-1.361,10.904-2.105l0.042-0.008	c0.555-0.112,1.095,0.248,1.207,0.802c0.077,0.384-0.072,0.762-0.355,0.995c-1.58,1.296-3.272,2.275-5.034,3.199	c-1.768,0.892-3.604,1.671-5.515,2.272c-1.91,0.602-3.883,1.07-5.91,1.351c-2.027,0.27-4.138,0.336-6.174,0.202	c-4.1-0.262-8.144-1.286-11.819-3.003c-3.664-1.758-7.023-4.004-9.661-7.168c-0.357-0.428-0.299-1.063,0.129-1.42	c0.32-0.267,0.756-0.302,1.105-0.124L8.664,46.253z"/></svg>